<svg width="1331" height="786" viewBox="0 0 1331 786" fill="none" xmlns="http://www.w3.org/2000/svg">
<g clip-path="url(#clip0_100_96)">
<rect width="1331" height="786" fill="#F6F9FE"/>
<rect width="1331" height="786" fill="#84ADFF"/>
<path d="M-114.429 667.08C-113.968 604.5 -131.388 558.886 -24.5237 559.673C82.3405 560.461 331.234 743.884 330.446 850.748C329.659 957.612 218.271 912.538 77.5 881C-29.3642 880.213 -115.217 773.944 -114.429 667.08Z" fill="#D9D9D9" fill-opacity="0.4"/>
<circle cx="1234" cy="670" r="53" fill="#CDD3FF" fill-opacity="0.2"/>
<circle cx="996" cy="776" r="53" fill="#CDD3FF" fill-opacity="0.15"/>
<circle cx="416" cy="96" r="53" fill="#CDD3FF" fill-opacity="0.15"/>
<circle cx="211.5" cy="102.5" r="33.5" fill="#CDD3FF" fill-opacity="0.3"/>
<circle cx="55.5" cy="56.5" r="13.5" fill="#CDD3FF" fill-opacity="0.3"/>
<circle cx="0.5" cy="343.5" r="28.5" fill="#CDD3FF" fill-opacity="0.3"/>
<circle cx="564.5" cy="736.5" r="13.5" fill="#CDD3FF" fill-opacity="0.15"/>
<path d="M1169.07 184.96C1223.96 215.005 1427.19 312.746 1478.5 219C1529.81 125.254 1416.04 -242.83 1322.3 -294.135C1228.55 -345.441 1116.49 -225.132 1075.55 -86.8009C1024.25 6.94504 1075.32 133.654 1169.07 184.96Z" fill="#6F9EFC"/>
</g>
<defs>
<clipPath id="clip0_100_96">
<rect width="1331" height="786" fill="white"/>
</clipPath>
</defs>
</svg>
