<svg width="360" height="701" version="1.1" xmlns="http://www.w3.org/2000/svg" desc="Created with imagetracer.js version 1.2.6" ><path fill="rgb(28,85,223)" stroke="rgb(28,85,223)" stroke-width="1" opacity="0.996078431372549" d="M 344.5 0 L 357 0.5 L 344.5 1 L 344.5 0 Z " /><path fill="rgb(28,85,223)" stroke="rgb(28,85,223)" stroke-width="1" opacity="0.996078431372549" d="M 323.5 1 L 326 1.5 L 323.5 2 L 323.5 1 Z " /><path fill="rgb(28,85,223)" stroke="rgb(28,85,223)" stroke-width="1" opacity="0.996078431372549" d="M 169.5 50 L 168.5 52 L 169.5 50 Z " /><path fill="rgb(28,85,223)" stroke="rgb(28,85,223)" stroke-width="1" opacity="0.996078431372549" d="M 161.5 55 L 160.5 57 L 161.5 55 Z " /><path fill="rgb(28,85,223)" stroke="rgb(28,85,223)" stroke-width="1" opacity="0.996078431372549" d="M 158.5 57 L 157.5 59 L 158.5 57 Z " /><path fill="rgb(28,85,223)" stroke="rgb(28,85,223)" stroke-width="1" opacity="0.996078431372549" d="M 155.5 59 L 154.5 61 L 155.5 59 Z " /><path fill="rgb(28,85,223)" stroke="rgb(28,85,223)" stroke-width="1" opacity="0.996078431372549" d="M 152.5 61 L 151.5 63 L 152.5 61 Z " /><path fill="rgb(28,85,223)" stroke="rgb(28,85,223)" stroke-width="1" opacity="0.996078431372549" d="M 145.5 66 L 144.5 68 L 145.5 66 Z " /><path fill="rgb(28,85,223)" stroke="rgb(28,85,223)" stroke-width="1" opacity="0.996078431372549" d="M 141.5 69 L 140.5 71 L 141.5 69 Z " /><path fill="rgb(28,85,223)" stroke="rgb(28,85,223)" stroke-width="1" opacity="0.996078431372549" d="M 137.5 72 L 136.5 74 L 137.5 72 Z " /><path fill="rgb(28,85,223)" stroke="rgb(28,85,223)" stroke-width="1" opacity="0.996078431372549" d="M 133.5 75 L 132.5 77 L 133.5 75 Z " /><path fill="rgb(28,85,223)" stroke="rgb(28,85,223)" stroke-width="1" opacity="0.996078431372549" d="M 128.5 79 L 126.5 82 L 128.5 79 Z " /><path fill="rgb(28,85,223)" stroke="rgb(28,85,223)" stroke-width="1" opacity="0.996078431372549" d="M 122.5 84 L 119.5 88 L 122.5 84 Z " /><path fill="rgb(28,85,223)" stroke="rgb(28,85,223)" stroke-width="1" opacity="0.996078431372549" d="M 113.5 92 L 92.5 114 L 113.5 92 Z " /><path fill="rgb(28,85,223)" stroke="rgb(28,85,223)" stroke-width="1" opacity="0.996078431372549" d="M 87.5 119 L 84.5 123 L 87.5 119 Z " /><path fill="rgb(28,85,223)" stroke="rgb(28,85,223)" stroke-width="1" opacity="0.996078431372549" d="M 81.5 126 L 79.5 129 L 81.5 126 Z " /><path fill="rgb(28,85,223)" stroke="rgb(28,85,223)" stroke-width="1" opacity="0.996078431372549" d="M 76.5 132 L 75.5 134 L 76.5 132 Z " /><path fill="rgb(28,85,223)" stroke="rgb(28,85,223)" stroke-width="1" opacity="0.996078431372549" d="M 64.5 148 L 63.5 150 L 64.5 148 Z " /><path fill="rgb(28,85,223)" stroke="rgb(28,85,223)" stroke-width="1" opacity="0.996078431372549" d="M 1.5 320 L 2 322.5 L 1 322.5 L 1.5 320 Z " /><path fill="rgb(28,85,223)" stroke="rgb(28,85,223)" stroke-width="1" opacity="0.996078431372549" d="M 0.5 335 L 1 343.5 L 0 343.5 L 0.5 335 Z " /><path fill="rgb(28,85,223)" stroke="rgb(28,85,223)" stroke-width="1" opacity="0.996078431372549" d="M 0.5 357 L 1 364.5 L 0 364.5 L 0.5 357 Z " /><path fill="rgb(28,85,223)" stroke="rgb(28,85,223)" stroke-width="1" opacity="0.996078431372549" d="M 1.5 377 L 2 379.5 L 1 379.5 L 1.5 377 Z " /><path fill="rgb(28,85,223)" stroke="rgb(28,85,223)" stroke-width="1" opacity="0.996078431372549" d="M 49.5 529 L 50.5 531 L 49.5 529 Z " /><path fill="rgb(28,85,223)" stroke="rgb(28,85,223)" stroke-width="1" opacity="0.996078431372549" d="M 54.5 537 L 55.5 539 L 54.5 537 Z " /><path fill="rgb(28,85,223)" stroke="rgb(28,85,223)" stroke-width="1" opacity="0.996078431372549" d="M 62.5 549 L 63.5 551 L 62.5 549 Z " /><path fill="rgb(28,85,223)" stroke="rgb(28,85,223)" stroke-width="1" opacity="0.996078431372549" d="M 67.5 556 L 68.5 558 L 67.5 556 Z " /><path fill="rgb(28,85,223)" stroke="rgb(28,85,223)" stroke-width="1" opacity="0.996078431372549" d="M 70.5 560 L 71.5 562 L 70.5 560 Z " /><path fill="rgb(28,85,223)" stroke="rgb(28,85,223)" stroke-width="1" opacity="0.996078431372549" d="M 73.5 564 L 74.5 566 L 73.5 564 Z " /><path fill="rgb(28,85,223)" stroke="rgb(28,85,223)" stroke-width="1" opacity="0.996078431372549" d="M 77.5 569 L 78.5 571 L 77.5 569 Z " /><path fill="rgb(28,85,223)" stroke="rgb(28,85,223)" stroke-width="1" opacity="0.996078431372549" d="M 81.5 574 L 84.5 578 L 81.5 574 Z " /><path fill="rgb(28,85,223)" stroke="rgb(28,85,223)" stroke-width="1" opacity="0.996078431372549" d="M 88.5 582 L 91.5 586 L 88.5 582 Z " /><path fill="rgb(28,85,223)" stroke="rgb(28,85,223)" stroke-width="1" opacity="0.996078431372549" d="M 114.5 608 L 118.5 613 L 114.5 608 Z " /><path fill="rgb(28,85,223)" stroke="rgb(28,85,223)" stroke-width="1" opacity="0.996078431372549" d="M 123.5 616 L 125.5 619 L 123.5 616 Z " /><path fill="rgb(28,85,223)" stroke="rgb(28,85,223)" stroke-width="1" opacity="0.996078431372549" d="M 129.5 621 L 130.5 623 L 129.5 621 Z " /><path fill="rgb(28,85,223)" stroke="rgb(28,85,223)" stroke-width="1" opacity="0.996078431372549" d="M 134.5 625 L 135.5 627 L 134.5 625 Z " /><path fill="rgb(28,85,223)" stroke="rgb(28,85,223)" stroke-width="1" opacity="0.996078431372549" d="M 138.5 628 L 139.5 630 L 138.5 628 Z " /><path fill="rgb(28,85,223)" stroke="rgb(28,85,223)" stroke-width="1" opacity="0.996078431372549" d="M 142.5 631 L 143.5 633 L 142.5 631 Z " /><path fill="rgb(28,85,223)" stroke="rgb(28,85,223)" stroke-width="1" opacity="0.996078431372549" d="M 146.5 634 L 147.5 636 L 146.5 634 Z " /><path fill="rgb(28,85,223)" stroke="rgb(28,85,223)" stroke-width="1" opacity="0.996078431372549" d="M 317.5 698 L 320 698.5 L 317.5 699 L 317.5 698 Z " /><path fill="rgb(28,85,223)" stroke="rgb(28,85,223)" stroke-width="1" opacity="0.996078431372549" d="M 330.5 699 L 335 699.5 L 330.5 700 L 330.5 699 Z " /><path fill="rgb(28,85,224)" stroke="rgb(28,85,224)" stroke-width="1" opacity="1" d="M 326.5 1 L 359.5 1 L 360 1.5 L 360 700 L 320.5 699 L 319.5 698 L 310.5 698 L 309.5 697 L 289.5 695 L 247.5 685 L 214.5 673 Q 141.6 641.4 92 586.5 Q 47.8 538.7 22 472.5 L 11 437.5 L 5 409.5 L 3 388.5 L 2 387.5 L 2 377.5 L 1 376.5 L 0 344.5 L 1 343.5 L 2 312.5 L 3 311.5 L 3 304.5 L 8 275.5 Q 16.2 239.2 30 208.5 Q 62.7 136.7 118.5 88 Q 159.5 51.5 213.5 28 L 249.5 15 L 276.5 8 L 298.5 4 L 305.5 4 L 314.5 2 L 325.5 2 L 326.5 1 Z " /><path fill="rgb(0,0,0)" stroke="rgb(0,0,0)" stroke-width="1" opacity="0" d="M 0 0 L 328 0.5 L 306.5 2 L 305.5 3 L 299.5 3 L 276.5 7 L 252.5 13 L 208.5 29 Q 139.7 60.2 92 112.5 Q 52.8 154.3 28 210.5 L 15 245.5 L 8 271.5 L 3 297.5 L 0.5 324 L 0 0 Z " /><path fill="rgb(0,0,0)" stroke="rgb(0,0,0)" stroke-width="1" opacity="0" d="M 0.5 376 L 3 402.5 L 9 433.5 Q 17.2 466.3 30 494.5 Q 62.5 565 117.5 613 Q 162.8 653.7 224.5 678 L 254.5 688 L 289.5 696 L 295.5 696 L 310.5 699 L 338 700.5 L 0 701 L 0.5 376 Z " /><path fill="rgb(28,84,223)" stroke="rgb(28,84,223)" stroke-width="1" opacity="0.396078431372549" d="M 328.5 0 L 344 0.5 L 328.5 1 L 328.5 0 Z " /><path fill="rgb(28,84,223)" stroke="rgb(28,84,223)" stroke-width="1" opacity="0.396078431372549" d="M 357.5 0 L 360 0.5 L 357.5 1 L 357.5 0 Z " /><path fill="rgb(28,84,223)" stroke="rgb(28,84,223)" stroke-width="1" opacity="0.396078431372549" d="M 315.5 1 L 323 1.5 L 315.5 2 L 315.5 1 Z " /><path fill="rgb(28,84,223)" stroke="rgb(28,84,223)" stroke-width="1" opacity="0.396078431372549" d="M 306.5 2 L 312 2.5 L 306.5 3 L 306.5 2 Z " /><path fill="rgb(28,84,223)" stroke="rgb(28,84,223)" stroke-width="1" opacity="0.396078431372549" d="M 299.5 3 L 304 3.5 L 299.5 4 L 299.5 3 Z " /><path fill="rgb(28,84,223)" stroke="rgb(28,84,223)" stroke-width="1" opacity="0.396078431372549" d="M 292.5 4 L 297 4.5 L 292.5 5 L 292.5 4 Z " /><path fill="rgb(28,84,223)" stroke="rgb(28,84,223)" stroke-width="1" opacity="0.396078431372549" d="M 286.5 5 L 291 5.5 L 286.5 6 L 286.5 5 Z " /><path fill="rgb(28,84,223)" stroke="rgb(28,84,223)" stroke-width="1" opacity="0.396078431372549" d="M 281.5 6 L 285 6.5 L 281.5 7 L 281.5 6 Z " /><path fill="rgb(28,84,223)" stroke="rgb(28,84,223)" stroke-width="1" opacity="0.396078431372549" d="M 276.5 7 L 280 7.5 L 276.5 8 L 276.5 7 Z " /><path fill="rgb(28,84,223)" stroke="rgb(28,84,223)" stroke-width="1" opacity="0.396078431372549" d="M 272.5 8 L 275 8.5 L 272.5 9 L 272.5 8 Z " /><path fill="rgb(28,84,223)" stroke="rgb(28,84,223)" stroke-width="1" opacity="0.396078431372549" d="M 268.5 9 L 271 9.5 L 268.5 10 L 268.5 9 Z " /><path fill="rgb(28,84,223)" stroke="rgb(28,84,223)" stroke-width="1" opacity="0.396078431372549" d="M 256.5 12 L 259 12.5 L 256.5 13 L 256.5 12 Z " /><path fill="rgb(28,84,223)" stroke="rgb(28,84,223)" stroke-width="1" opacity="0.396078431372549" d="M 252.5 13 L 255 13.5 L 252.5 14 L 252.5 13 Z " /><path fill="rgb(28,84,223)" stroke="rgb(28,84,223)" stroke-width="1" opacity="0.396078431372549" d="M 225.5 22 L 227 22.5 L 223.5 24 L 223.5 23 L 225.5 22 Z " /><path fill="rgb(28,84,223)" stroke="rgb(28,84,223)" stroke-width="1" opacity="0.396078431372549" d="M 220.5 24 L 222 24.5 L 218.5 26 L 218.5 25 L 220.5 24 Z " /><path fill="rgb(28,84,223)" stroke="rgb(28,84,223)" stroke-width="1" opacity="0.396078431372549" d="M 215.5 26 L 217 26.5 L 213.5 28 L 213.5 27 L 215.5 26 Z " /><path fill="rgb(28,84,223)" stroke="rgb(28,84,223)" stroke-width="1" opacity="0.396078431372549" d="M 208.5 29 L 210 29.5 L 204.5 32 L 204.5 31 L 208.5 29 Z " /><path fill="rgb(28,84,223)" stroke="rgb(28,84,223)" stroke-width="1" opacity="0.396078431372549" d="M 182.5 42 L 181.5 44 L 177.5 46 L 178.5 44 L 182.5 42 Z " /><path fill="rgb(28,84,223)" stroke="rgb(28,84,223)" stroke-width="1" opacity="0.396078431372549" d="M 175.5 46 L 174.5 48 L 170.5 50 L 171.5 48 L 175.5 46 Z " /><path fill="rgb(28,84,223)" stroke="rgb(28,84,223)" stroke-width="1" opacity="0.396078431372549" d="M 168.5 50 L 167.5 52 L 168.5 50 Z " /><path fill="rgb(28,84,223)" stroke="rgb(28,84,223)" stroke-width="1" opacity="0.396078431372549" d="M 165.5 52 L 164.5 54 L 162.5 55 L 163.5 53 L 165.5 52 Z " /><path fill="rgb(28,84,223)" stroke="rgb(28,84,223)" stroke-width="1" opacity="0.396078431372549" d="M 160.5 55 L 159.5 57 L 160.5 55 Z " /><path fill="rgb(28,84,223)" stroke="rgb(28,84,223)" stroke-width="1" opacity="0.396078431372549" d="M 157.5 57 L 156.5 59 L 157.5 57 Z " /><path fill="rgb(28,84,223)" stroke="rgb(28,84,223)" stroke-width="1" opacity="0.396078431372549" d="M 154.5 59 L 153.5 61 L 154.5 59 Z " /><path fill="rgb(28,84,223)" stroke="rgb(28,84,223)" stroke-width="1" opacity="0.396078431372549" d="M 151.5 61 L 149.5 64 L 146.5 66 L 148.5 63 L 151.5 61 Z " /><path fill="rgb(28,84,223)" stroke="rgb(28,84,223)" stroke-width="1" opacity="0.396078431372549" d="M 144.5 66 L 142.5 69 L 134.5 75 L 137.5 71 L 144.5 66 Z " /><path fill="rgb(28,84,223)" stroke="rgb(28,84,223)" stroke-width="1" opacity="0.396078431372549" d="M 132.5 75 L 129.5 79 L 132.5 75 Z " /><path fill="rgb(28,84,223)" stroke="rgb(28,84,223)" stroke-width="1" opacity="0.396078431372549" d="M 127.5 79 L 123.5 84 L 127.5 79 Z " /><path fill="rgb(28,84,223)" stroke="rgb(28,84,223)" stroke-width="1" opacity="0.396078431372549" d="M 121.5 84 L 114.5 92 L 121.5 84 Z " /><path fill="rgb(28,84,223)" stroke="rgb(28,84,223)" stroke-width="1" opacity="0.396078431372549" d="M 112.5 92 L 92.5 113 L 112.5 92 Z " /><path fill="rgb(28,84,223)" stroke="rgb(28,84,223)" stroke-width="1" opacity="0.396078431372549" d="M 91.5 114 L 84.5 122 L 91.5 114 Z " /><path fill="rgb(28,84,223)" stroke="rgb(28,84,223)" stroke-width="1" opacity="0.396078431372549" d="M 83.5 123 L 79.5 128 L 83.5 123 Z " /><path fill="rgb(28,84,223)" stroke="rgb(28,84,223)" stroke-width="1" opacity="0.396078431372549" d="M 78.5 129 L 75.5 133 L 78.5 129 Z " /><path fill="rgb(28,84,223)" stroke="rgb(28,84,223)" stroke-width="1" opacity="0.396078431372549" d="M 74.5 134 L 72 137.5 L 63.5 149 L 65 146.5 L 74.5 134 Z " /><path fill="rgb(28,84,223)" stroke="rgb(28,84,223)" stroke-width="1" opacity="0.396078431372549" d="M 62.5 150 L 61.5 152 L 62.5 150 Z " /><path fill="rgb(28,84,223)" stroke="rgb(28,84,223)" stroke-width="1" opacity="0.396078431372549" d="M 60.5 153 L 59.5 155 L 60.5 153 Z " /><path fill="rgb(28,84,223)" stroke="rgb(28,84,223)" stroke-width="1" opacity="0.396078431372549" d="M 58.5 156 L 57.5 158 L 58.5 156 Z " /><path fill="rgb(28,84,223)" stroke="rgb(28,84,223)" stroke-width="1" opacity="0.396078431372549" d="M 56.5 159 L 55.5 161 L 56.5 159 Z " /><path fill="rgb(28,84,223)" stroke="rgb(28,84,223)" stroke-width="1" opacity="0.396078431372549" d="M 54.5 162 L 54 163.5 L 50.5 169 L 51 167.5 L 54.5 162 Z " /><path fill="rgb(28,84,223)" stroke="rgb(28,84,223)" stroke-width="1" opacity="0.396078431372549" d="M 49.5 170 L 49 171.5 L 46.5 176 L 47 174.5 L 49.5 170 Z " /><path fill="rgb(28,84,223)" stroke="rgb(28,84,223)" stroke-width="1" opacity="0.396078431372549" d="M 45.5 177 L 45 178.5 L 42.5 183 L 43 181.5 L 45.5 177 Z " /><path fill="rgb(28,84,223)" stroke="rgb(28,84,223)" stroke-width="1" opacity="0.396078431372549" d="M 39.5 188 L 39 189.5 L 34.5 199 L 34 197.5 L 39.5 188 Z " /><path fill="rgb(28,84,223)" stroke="rgb(28,84,223)" stroke-width="1" opacity="0.396078431372549" d="M 30.5 206 L 31 207.5 L 28.5 212 L 28 210.5 L 30.5 206 Z " /><path fill="rgb(28,84,223)" stroke="rgb(28,84,223)" stroke-width="1" opacity="0.396078431372549" d="M 27.5 213 L 28 214.5 L 26.5 217 L 26 215.5 L 27.5 213 Z " /><path fill="rgb(28,84,223)" stroke="rgb(28,84,223)" stroke-width="1" opacity="0.396078431372549" d="M 20.5 231 L 21 232.5 L 19.5 235 L 19 233.5 L 20.5 231 Z " /><path fill="rgb(28,84,223)" stroke="rgb(28,84,223)" stroke-width="1" opacity="0.396078431372549" d="M 15.5 245 L 16 247.5 L 15 247.5 L 15.5 245 Z " /><path fill="rgb(28,84,223)" stroke="rgb(28,84,223)" stroke-width="1" opacity="0.396078431372549" d="M 12.5 255 L 13 257.5 L 12 257.5 L 12.5 255 Z " /><path fill="rgb(28,84,223)" stroke="rgb(28,84,223)" stroke-width="1" opacity="0.396078431372549" d="M 11.5 259 L 12 261.5 L 11 261.5 L 11.5 259 Z " /><path fill="rgb(28,84,223)" stroke="rgb(28,84,223)" stroke-width="1" opacity="0.396078431372549" d="M 10.5 263 L 11 265.5 L 10 265.5 L 10.5 263 Z " /><path fill="rgb(28,84,223)" stroke="rgb(28,84,223)" stroke-width="1" opacity="0.396078431372549" d="M 9.5 267 L 10 269.5 L 9 269.5 L 9.5 267 Z " /><path fill="rgb(28,84,223)" stroke="rgb(28,84,223)" stroke-width="1" opacity="0.396078431372549" d="M 8.5 271 L 9 273.5 L 8 273.5 L 8.5 271 Z " /><path fill="rgb(28,84,223)" stroke="rgb(28,84,223)" stroke-width="1" opacity="0.396078431372549" d="M 7.5 276 L 8 278.5 L 7 278.5 L 7.5 276 Z " /><path fill="rgb(28,84,223)" stroke="rgb(28,84,223)" stroke-width="1" opacity="0.396078431372549" d="M 6.5 280 L 7 283.5 L 6 283.5 L 6.5 280 Z " /><path fill="rgb(28,84,223)" stroke="rgb(28,84,223)" stroke-width="1" opacity="0.396078431372549" d="M 5.5 286 L 6 288.5 L 5 288.5 L 5.5 286 Z " /><path fill="rgb(28,84,223)" stroke="rgb(28,84,223)" stroke-width="1" opacity="0.396078431372549" d="M 4.5 291 L 5 294.5 L 4 294.5 L 4.5 291 Z " /><path fill="rgb(28,84,223)" stroke="rgb(28,84,223)" stroke-width="1" opacity="0.396078431372549" d="M 3.5 297 L 4 301.5 L 3 301.5 L 3.5 297 Z " /><path fill="rgb(28,84,223)" stroke="rgb(28,84,223)" stroke-width="1" opacity="0.396078431372549" d="M 2.5 305 L 3 309.5 L 2 309.5 L 2.5 305 Z " /><path fill="rgb(28,84,223)" stroke="rgb(28,84,223)" stroke-width="1" opacity="0.396078431372549" d="M 1.5 313 L 2 319.5 L 1 319.5 L 1.5 313 Z " /><path fill="rgb(28,84,223)" stroke="rgb(28,84,223)" stroke-width="1" opacity="0.396078431372549" d="M 0.5 324 L 1 334.5 L 0 334.5 L 0.5 324 Z " /><path fill="rgb(28,84,223)" stroke="rgb(28,84,223)" stroke-width="1" opacity="0.396078431372549" d="M 0.5 365 L 1 375.5 L 0 375.5 L 0.5 365 Z " /><path fill="rgb(28,84,223)" stroke="rgb(28,84,223)" stroke-width="1" opacity="0.396078431372549" d="M 1.5 380 L 2 387.5 L 1 387.5 L 1.5 380 Z " /><path fill="rgb(28,84,223)" stroke="rgb(28,84,223)" stroke-width="1" opacity="0.396078431372549" d="M 2.5 390 L 3 395.5 L 2 395.5 L 2.5 390 Z " /><path fill="rgb(28,84,223)" stroke="rgb(28,84,223)" stroke-width="1" opacity="0.396078431372549" d="M 3.5 398 L 4 402.5 L 3 402.5 L 3.5 398 Z " /><path fill="rgb(28,84,223)" stroke="rgb(28,84,223)" stroke-width="1" opacity="0.396078431372549" d="M 4.5 405 L 5 408.5 L 4 408.5 L 4.5 405 Z " /><path fill="rgb(28,84,223)" stroke="rgb(28,84,223)" stroke-width="1" opacity="0.396078431372549" d="M 5.5 411 L 6 414.5 L 5 414.5 L 5.5 411 Z " /><path fill="rgb(28,84,223)" stroke="rgb(28,84,223)" stroke-width="1" opacity="0.396078431372549" d="M 6.5 417 L 7 419.5 L 6 419.5 L 6.5 417 Z " /><path fill="rgb(28,84,223)" stroke="rgb(28,84,223)" stroke-width="1" opacity="0.396078431372549" d="M 7.5 422 L 8 424.5 L 7 424.5 L 7.5 422 Z " /><path fill="rgb(28,84,223)" stroke="rgb(28,84,223)" stroke-width="1" opacity="0.396078431372549" d="M 8.5 426 L 9 428.5 L 8 428.5 L 8.5 426 Z " /><path fill="rgb(28,84,223)" stroke="rgb(28,84,223)" stroke-width="1" opacity="0.396078431372549" d="M 9.5 431 L 10 433.5 L 9 433.5 L 9.5 431 Z " /><path fill="rgb(28,84,223)" stroke="rgb(28,84,223)" stroke-width="1" opacity="0.396078431372549" d="M 10.5 435 L 11 437.5 L 10 437.5 L 10.5 435 Z " /><path fill="rgb(28,84,223)" stroke="rgb(28,84,223)" stroke-width="1" opacity="0.396078431372549" d="M 11.5 439 L 12 441.5 L 11 441.5 L 11.5 439 Z " /><path fill="rgb(28,84,223)" stroke="rgb(28,84,223)" stroke-width="1" opacity="0.396078431372549" d="M 13.5 446 L 14 448.5 L 13 448.5 L 13.5 446 Z " /><path fill="rgb(28,84,223)" stroke="rgb(28,84,223)" stroke-width="1" opacity="0.396078431372549" d="M 24.5 479 L 26 482.5 L 25 482.5 L 24.5 479 Z " /><path fill="rgb(28,84,223)" stroke="rgb(28,84,223)" stroke-width="1" opacity="0.396078431372549" d="M 27.5 486 L 29 489.5 L 28 489.5 L 27.5 486 Z " /><path fill="rgb(28,84,223)" stroke="rgb(28,84,223)" stroke-width="1" opacity="0.396078431372549" d="M 30.5 493 L 33 498.5 L 32 498.5 L 30.5 493 Z " /><path fill="rgb(28,84,223)" stroke="rgb(28,84,223)" stroke-width="1" opacity="0.396078431372549" d="M 40.5 514 L 44 519.5 L 42 518.5 L 40.5 514 Z " /><path fill="rgb(28,84,223)" stroke="rgb(28,84,223)" stroke-width="1" opacity="0.396078431372549" d="M 45.5 523 L 48 526.5 L 46 525.5 L 45.5 523 Z " /><path fill="rgb(28,84,223)" stroke="rgb(28,84,223)" stroke-width="1" opacity="0.396078431372549" d="M 49.5 530 L 50.5 532 L 49.5 530 Z " /><path fill="rgb(28,84,223)" stroke="rgb(28,84,223)" stroke-width="1" opacity="0.396078431372549" d="M 51.5 533 L 54 536.5 L 52 535.5 L 51.5 533 Z " /><path fill="rgb(28,84,223)" stroke="rgb(28,84,223)" stroke-width="1" opacity="0.396078431372549" d="M 54.5 538 L 55.5 540 L 54.5 538 Z " /><path fill="rgb(28,84,223)" stroke="rgb(28,84,223)" stroke-width="1" opacity="0.396078431372549" d="M 56.5 541 L 57.5 543 L 56.5 541 Z " /><path fill="rgb(28,84,223)" stroke="rgb(28,84,223)" stroke-width="1" opacity="0.396078431372549" d="M 58.5 544 L 59.5 546 L 58.5 544 Z " /><path fill="rgb(28,84,223)" stroke="rgb(28,84,223)" stroke-width="1" opacity="0.396078431372549" d="M 60.5 547 L 61.5 549 L 60.5 547 Z " /><path fill="rgb(28,84,223)" stroke="rgb(28,84,223)" stroke-width="1" opacity="0.396078431372549" d="M 62.5 550 L 67 555.5 L 64 553.5 L 62.5 550 Z " /><path fill="rgb(28,84,223)" stroke="rgb(28,84,223)" stroke-width="1" opacity="0.396078431372549" d="M 67.5 557 L 73 563.5 L 69 560.5 L 67.5 557 Z " /><path fill="rgb(28,84,223)" stroke="rgb(28,84,223)" stroke-width="1" opacity="0.396078431372549" d="M 73.5 565 L 81 573.5 L 76 569.5 L 73.5 565 Z " /><path fill="rgb(28,84,223)" stroke="rgb(28,84,223)" stroke-width="1" opacity="0.396078431372549" d="M 81.5 575 L 118 612.5 L 87 582.5 L 81.5 575 Z " /><path fill="rgb(28,84,223)" stroke="rgb(28,84,223)" stroke-width="1" opacity="0.396078431372549" d="M 119.5 613 L 124.5 619 L 119.5 613 Z " /><path fill="rgb(28,84,223)" stroke="rgb(28,84,223)" stroke-width="1" opacity="0.396078431372549" d="M 126.5 619 L 135 626.5 L 131.5 624 L 126.5 619 Z " /><path fill="rgb(28,84,223)" stroke="rgb(28,84,223)" stroke-width="1" opacity="0.396078431372549" d="M 136.5 627 L 143 632.5 L 140.5 631 L 136.5 627 Z " /><path fill="rgb(28,84,223)" stroke="rgb(28,84,223)" stroke-width="1" opacity="0.396078431372549" d="M 144.5 633 L 146.5 636 L 144.5 633 Z " /><path fill="rgb(28,84,223)" stroke="rgb(28,84,223)" stroke-width="1" opacity="0.396078431372549" d="M 148.5 636 L 149.5 638 L 148.5 636 Z " /><path fill="rgb(28,84,223)" stroke="rgb(28,84,223)" stroke-width="1" opacity="0.396078431372549" d="M 151.5 638 L 162 645.5 L 160.5 645 Q 153.4 642.7 151.5 638 Z " /><path fill="rgb(28,84,223)" stroke="rgb(28,84,223)" stroke-width="1" opacity="0.396078431372549" d="M 163.5 646 L 170 650.5 L 168.5 650 Q 163.9 648.8 163.5 646 Z " /><path fill="rgb(28,84,223)" stroke="rgb(28,84,223)" stroke-width="1" opacity="0.396078431372549" d="M 171.5 651 L 177 654.5 L 175.5 654 Q 171.5 653.5 171.5 651 Z " /><path fill="rgb(28,84,223)" stroke="rgb(28,84,223)" stroke-width="1" opacity="0.396078431372549" d="M 178.5 655 L 186 659.5 L 184.5 659 Q 178.9 658.2 178.5 655 Z " /><path fill="rgb(28,84,223)" stroke="rgb(28,84,223)" stroke-width="1" opacity="0.396078431372549" d="M 203.5 668 L 209 670.5 L 207.5 671 L 203.5 669 L 203.5 668 Z " /><path fill="rgb(28,84,223)" stroke="rgb(28,84,223)" stroke-width="1" opacity="0.396078431372549" d="M 212.5 672 L 216 673.5 L 214.5 674 L 212.5 672 Z " /><path fill="rgb(28,84,223)" stroke="rgb(28,84,223)" stroke-width="1" opacity="0.396078431372549" d="M 217.5 674 L 221 675.5 L 219.5 676 L 217.5 674 Z " /><path fill="rgb(28,84,223)" stroke="rgb(28,84,223)" stroke-width="1" opacity="0.396078431372549" d="M 222.5 676 L 226 677.5 L 224.5 678 L 222.5 676 Z " /><path fill="rgb(28,84,223)" stroke="rgb(28,84,223)" stroke-width="1" opacity="0.396078431372549" d="M 230.5 679 L 234 680.5 L 232.5 681 L 230.5 679 Z " /><path fill="rgb(28,84,223)" stroke="rgb(28,84,223)" stroke-width="1" opacity="0.396078431372549" d="M 244.5 684 L 247 684.5 L 244.5 685 L 244.5 684 Z " /><path fill="rgb(28,84,223)" stroke="rgb(28,84,223)" stroke-width="1" opacity="0.396078431372549" d="M 254.5 687 L 257 687.5 L 254.5 688 L 254.5 687 Z " /><path fill="rgb(28,84,223)" stroke="rgb(28,84,223)" stroke-width="1" opacity="0.396078431372549" d="M 258.5 688 L 261 688.5 L 258.5 689 L 258.5 688 Z " /><path fill="rgb(28,84,223)" stroke="rgb(28,84,223)" stroke-width="1" opacity="0.396078431372549" d="M 270.5 691 L 273 691.5 L 270.5 692 L 270.5 691 Z " /><path fill="rgb(28,84,223)" stroke="rgb(28,84,223)" stroke-width="1" opacity="0.396078431372549" d="M 274.5 692 L 277 692.5 L 274.5 693 L 274.5 692 Z " /><path fill="rgb(28,84,223)" stroke="rgb(28,84,223)" stroke-width="1" opacity="0.396078431372549" d="M 279.5 693 L 282 693.5 L 279.5 694 L 279.5 693 Z " /><path fill="rgb(28,84,223)" stroke="rgb(28,84,223)" stroke-width="1" opacity="0.396078431372549" d="M 284.5 694 L 288 694.5 L 284.5 695 L 284.5 694 Z " /><path fill="rgb(28,84,223)" stroke="rgb(28,84,223)" stroke-width="1" opacity="0.396078431372549" d="M 289.5 695 L 293 695.5 L 289.5 696 L 289.5 695 Z " /><path fill="rgb(28,84,223)" stroke="rgb(28,84,223)" stroke-width="1" opacity="0.396078431372549" d="M 296.5 696 L 300 696.5 L 296.5 697 L 296.5 696 Z " /><path fill="rgb(28,84,223)" stroke="rgb(28,84,223)" stroke-width="1" opacity="0.396078431372549" d="M 302.5 697 L 308 697.5 L 302.5 698 L 302.5 697 Z " /><path fill="rgb(28,84,223)" stroke="rgb(28,84,223)" stroke-width="1" opacity="0.396078431372549" d="M 310.5 698 L 317 698.5 L 310.5 699 L 310.5 698 Z " /><path fill="rgb(28,84,223)" stroke="rgb(28,84,223)" stroke-width="1" opacity="0.396078431372549" d="M 321.5 699 L 330 699.5 L 321.5 700 L 321.5 699 Z " /><path fill="rgb(28,84,223)" stroke="rgb(28,84,223)" stroke-width="1" opacity="0.396078431372549" d="M 338.5 700 L 360 700.5 L 338.5 701 L 338.5 700 Z " /></svg>